<svg width="30" height="27" viewBox="0 0 30 27" fill="none" xmlns="http://www.w3.org/2000/svg">
<path d="M21.875 0.39624C20.4674 0.418134 19.0905 0.811057 17.8834 1.53533C16.6763 2.2596 15.6817 3.28958 15 4.52124C14.3183 3.28958 13.3236 2.2596 12.1165 1.53533C10.9094 0.811057 9.53254 0.418134 8.12498 0.39624C5.88115 0.493729 3.76711 1.47531 2.24471 3.12653C0.722303 4.77775 -0.0847098 6.9644 -2.16196e-05 9.20874C-2.16196e-05 14.8925 5.98248 21.1 11 25.3087C12.1202 26.2502 13.5367 26.7663 15 26.7663C16.4633 26.7663 17.8797 26.2502 19 25.3087C24.0175 21.1 30 14.8925 30 9.20874C30.0847 6.9644 29.2777 4.77775 27.7552 3.12653C26.2328 1.47531 24.1188 0.493729 21.875 0.39624ZM17.3937 23.3962C16.7237 23.9605 15.8759 24.2699 15 24.2699C14.124 24.2699 13.2762 23.9605 12.6062 23.3962C6.18373 18.0075 2.49998 12.8375 2.49998 9.20874C2.41453 7.62714 2.95794 6.0759 4.01168 4.89336C5.06543 3.71083 6.54402 2.99293 8.12498 2.89624C9.70594 2.99293 11.1845 3.71083 12.2383 4.89336C13.292 6.0759 13.8354 7.62714 13.75 9.20874C13.75 9.54026 13.8817 9.8582 14.1161 10.0926C14.3505 10.327 14.6685 10.4587 15 10.4587C15.3315 10.4587 15.6494 10.327 15.8839 10.0926C16.1183 9.8582 16.25 9.54026 16.25 9.20874C16.1645 7.62714 16.7079 6.0759 17.7617 4.89336C18.8154 3.71083 20.294 2.99293 21.875 2.89624C23.4559 2.99293 24.9345 3.71083 25.9883 4.89336C27.042 6.0759 27.5854 7.62714 27.5 9.20874C27.5 12.8375 23.8162 18.0075 17.3937 23.3912V23.3962Z" fill="url(#paint0_linear_35_404)"/>
<defs>
<linearGradient id="paint0_linear_35_404" x1="7.573" y1="-6.39264" x2="29.851" y2="-5.41773" gradientUnits="userSpaceOnUse">
<stop stop-color="#5E3928"/>
<stop offset="0.911458" stop-color="#E4A16F"/>
</linearGradient>
</defs>
</svg>
