<svg width="30" height="30" viewBox="0 0 30 30" xmlns="http://www.w3.org/2000/svg">
<g clip-path="url(#clip0_43_105)">
<path d="M21.8752 2.39624C20.4676 2.41813 19.0908 2.81106 17.8836 3.53533C16.6765 4.2596 15.6819 5.28958 15.0002 6.52124C14.3185 5.28958 13.3239 4.2596 12.1167 3.53533C10.9096 2.81106 9.53275 2.41813 8.12519 2.39624C5.88137 2.49373 3.76732 3.47531 2.24492 5.12653C0.722516 6.77775 -0.0844962 8.9644 0.000192003 11.2087C0.000192003 16.8925 5.98269 23.1 11.0002 27.3087C12.1205 28.2502 13.5369 28.7663 15.0002 28.7663C16.4635 28.7663 17.8799 28.2502 19.0002 27.3087C24.0177 23.1 30.0002 16.8925 30.0002 11.2087C30.0849 8.9644 29.2779 6.77775 27.7555 5.12653C26.2331 3.47531 24.119 2.49373 21.8752 2.39624ZM17.3939 25.3962C16.7239 25.9605 15.8761 26.2699 15.0002 26.2699C14.1242 26.2699 13.2765 25.9605 12.6064 25.3962C6.18394 20.0075 2.50019 14.8375 2.50019 11.2087C2.41474 9.62714 2.95815 8.0759 4.0119 6.89336C5.06564 5.71083 6.54423 4.99293 8.12519 4.89624C9.70615 4.99293 11.1847 5.71083 12.2385 6.89336C13.2922 8.0759 13.8356 9.62714 13.7502 11.2087C13.7502 11.5403 13.8819 11.8582 14.1163 12.0926C14.3507 12.327 14.6687 12.4587 15.0002 12.4587C15.3317 12.4587 15.6497 12.327 15.8841 12.0926C16.1185 11.8582 16.2502 11.5403 16.2502 11.2087C16.1647 9.62714 16.7081 8.0759 17.7619 6.89336C18.8156 5.71083 20.2942 4.99293 21.8752 4.89624C23.4561 4.99293 24.9347 5.71083 25.9885 6.89336C27.0422 8.0759 27.5856 9.62714 27.5002 11.2087C27.5002 14.8375 23.8164 20.0075 17.3939 25.3912V25.3962Z"/>
</g>
<defs>
<clipPath id="clip0_43_105">
<rect width="30" height="30"/>
</clipPath>
</defs>
</svg>
