<svg width="30" height="30" viewBox="0 0 30 30" fill="none" xmlns="http://www.w3.org/2000/svg">
<g clip-path="url(#clip0_23_362)">
<path fill-rule="evenodd" clip-rule="evenodd" d="M17.8834 3.53533C19.0905 2.81106 20.4674 2.41813 21.875 2.39624C24.1188 2.49373 26.2328 3.47531 27.7552 5.12653C29.2777 6.77775 30.0847 8.9644 30 11.2087C30 16.8925 24.0175 23.1 19 27.3087C17.8797 28.2502 16.4633 28.7663 15 28.7663C13.5367 28.7663 12.1202 28.2502 11 27.3087C5.98248 23.1 -2.16197e-05 16.8925 -2.16197e-05 11.2087C-0.0847098 8.9644 0.722303 6.77775 2.24471 5.12653C3.76711 3.47531 5.88115 2.49373 8.12498 2.39624C9.53254 2.41813 10.9094 2.81106 12.1165 3.53533C13.3236 4.2596 14.3183 5.28958 15 6.52124C15.6817 5.28958 16.6763 4.2596 17.8834 3.53533Z" fill="url(#paint0_linear_23_362)"/>
</g>
<defs>
<linearGradient id="paint0_linear_23_362" x1="7.573" y1="-4.39264" x2="29.851" y2="-3.41773" gradientUnits="userSpaceOnUse">
<stop stop-color="#5E3928"/>
<stop offset="0.911458" stop-color="#E4A16F"/>
</linearGradient>
<clipPath id="clip0_23_362">
<rect width="30" height="30" fill="white"/>
</clipPath>
</defs>
</svg>
