<svg width="28" height="28" xmlns="http://www.w3.org/2000/svg"><g clip-path="url(#a)"><path d="M26.498 4.756A3.492 3.492 0 0 0 23.813 3.5H4.949L4.9 3.09A3.5 3.5 0 0 0 1.426 0h-.26a1.167 1.167 0 1 0 0 2.333h.26a1.167 1.167 0 0 1 1.158 1.03l1.605 13.65a5.833 5.833 0 0 0 5.794 5.154h12.184a1.167 1.167 0 1 0 0-2.334H9.983a3.5 3.5 0 0 1-3.29-2.333H20.6a5.833 5.833 0 0 0 5.741-4.799l.916-5.08a3.492 3.492 0 0 0-.759-2.865Zm-1.531 2.452-.917 5.08a3.5 3.5 0 0 1-3.45 2.879H6.322L5.224 5.833h18.588a1.166 1.166 0 0 1 1.155 1.375ZM8.167 28a2.333 2.333 0 1 0 0-4.667 2.333 2.333 0 0 0 0 4.667Zm11.666 0a2.333 2.333 0 1 0 0-4.667 2.333 2.333 0 0 0 0 4.667Z"/></g><defs><clipPath id="a"><path d="M0 0h28v28H0z"/></clipPath></defs></svg>