<svg width="30" height="27" fill="none" xmlns="http://www.w3.org/2000/svg"><path d="M21.875.396A8 8 0 0 0 15 4.521 8 8 0 0 0 8.125.396 8.5 8.5 0 0 0 0 9.21c0 5.684 5.982 11.891 11 16.1a6.217 6.217 0 0 0 8 0c5.017-4.209 11-10.417 11-16.1A8.5 8.5 0 0 0 21.875.396Zm-4.481 23a3.716 3.716 0 0 1-4.788 0C6.184 18.007 2.5 12.837 2.5 9.21a6 6 0 0 1 5.625-6.313A6 6 0 0 1 13.75 9.21a1.25 1.25 0 1 0 2.5 0 6 6 0 0 1 5.625-6.313A6 6 0 0 1 27.5 9.21c0 3.629-3.684 8.799-10.106 14.182v.005Z" fill="url(#a)"/><defs><linearGradient id="a" x1="7.573" y1="-6.393" x2="29.851" y2="-5.418" gradientUnits="userSpaceOnUse"><stop stop-color="#5E3928"/><stop offset=".911" stop-color="#E4A16F"/></linearGradient></defs></svg>