<svg width="30" height="30" fill="none" xmlns="http://www.w3.org/2000/svg"><g clip-path="url(#a)"><path fill-rule="evenodd" clip-rule="evenodd" d="M17.883 3.535a8 8 0 0 1 3.992-1.139A8.5 8.5 0 0 1 30 11.21c0 5.683-5.983 11.891-11 16.1a6.217 6.217 0 0 1-8 0C5.982 23.1 0 16.892 0 11.209a8.5 8.5 0 0 1 8.125-8.813A8 8 0 0 1 15 6.521a8 8 0 0 1 2.883-2.986Z" fill="url(#b)"/></g><defs><linearGradient id="b" x1="7.573" y1="-4.393" x2="29.851" y2="-3.418" gradientUnits="userSpaceOnUse"><stop stop-color="#5E3928"/><stop offset=".911" stop-color="#E4A16F"/></linearGradient><clipPath id="a"><path fill="#fff" d="M0 0h30v30H0z"/></clipPath></defs></svg>