<svg width="30" height="30" xmlns="http://www.w3.org/2000/svg"><g clip-path="url(#a)"><path d="M21.875 2.396A8 8 0 0 0 15 6.521a8 8 0 0 0-6.875-4.125A8.5 8.5 0 0 0 0 11.21c0 5.683 5.983 11.891 11 16.1a6.217 6.217 0 0 0 8 0c5.018-4.209 11-10.417 11-16.1a8.5 8.5 0 0 0-8.125-8.813Zm-4.481 23a3.716 3.716 0 0 1-4.788 0C6.184 20.007 2.5 14.837 2.5 11.21a6 6 0 0 1 5.625-6.313 6 6 0 0 1 5.625 6.313 1.25 1.25 0 1 0 2.5 0 6 6 0 0 1 5.625-6.313A6 6 0 0 1 27.5 11.21c0 3.629-3.684 8.799-10.106 14.182v.005Z"/></g><defs><clipPath id="a"><path d="M0 0h30v30H0z"/></clipPath></defs></svg>