<svg xmlns="http://www.w3.org/2000/svg" viewBox="0 0 149.62 45.52"><g data-name="Слой 2"><path class="cls-1" d="M8.35 27.55a2.5 2.5 0 0 1 0 1.37 1.24 1.24 0 0 1-.21.36 1.89 1.89 0 0 1-.28.24c-.24.19-.32.23-.77.53a6.35 6.35 0 0 0-.63.47l-.26.22 2 2.26q.24 5.2.47 10.41a5.32 5.32 0 0 0 .57.71 4.19 4.19 0 0 0 1.15.92 4.06 4.06 0 0 0 1.66.47h14.36a4.35 4.35 0 0 0 1.89-.32A3.63 3.63 0 0 0 29.93 44a3.3 3.3 0 0 0 .53-1.15c.14-3 .28-6.07.41-9.11l2.34-1.33a1.64 1.64 0 0 0 .65-.65 1.89 1.89 0 0 0 .14-1.45 3.21 3.21 0 0 0-2.84-1.89 3.51 3.51 0 0 0-.32-1.36 3.78 3.78 0 0 0-1.42-1.54 7.58 7.58 0 0 0-4.5-1.06q.52-7.82 1-15.62a2.82 2.82 0 0 0-.57-1.15A3.2 3.2 0 0 0 23 6.62h-2.89a4.88 4.88 0 0 0 0-2 5.31 5.31 0 0 0-1.33-2.45A6 6 0 0 0 16.15.29 6 6 0 0 0 12 .47 6 6 0 0 0 9 3.4a6.61 6.61 0 0 0-.71 2.9v1.8a.9.9 0 0 1-.29.3 1 1 0 0 1-.79 0 10.26 10.26 0 0 0-1.28-.36 11.65 11.65 0 0 0-3.75-.18 2.14 2.14 0 0 0-1.27.63 1.94 1.94 0 0 0-.47 1.12 2.33 2.33 0 0 0 .41 1.7 2.5 2.5 0 0 0 1.43.75A8.13 8.13 0 0 0 6.77 12 8.25 8.25 0 0 0 8 11.47a.6.6 0 0 1 .39.09.6.6 0 0 1 .18.45 1.24 1.24 0 0 1-.3.79 1.38 1.38 0 0 1-.46.43 1.55 1.55 0 0 1-1 .11A5 5 0 0 1 5.57 13a7.73 7.73 0 0 0-2.93-.44 3.19 3.19 0 0 0-1.47.33 2.11 2.11 0 0 0-1.1 1.2 2.14 2.14 0 0 0 .46 1.87 2.67 2.67 0 0 0 1.47.69 8.87 8.87 0 0 0 4.67-.15A9.49 9.49 0 0 0 8 15.94a.62.62 0 0 1 .48.18s.09.13.09.47a2.46 2.46 0 0 1-.15.89 1.08 1.08 0 0 1-.42.62 1 1 0 0 1-.74 0 3.2 3.2 0 0 0-.68-.45 4.41 4.41 0 0 0-1.53-.38 10.78 10.78 0 0 0-2.61 0c-.83.09-1.25.14-1.56.41a2.16 2.16 0 0 0-.58 1.57A2.14 2.14 0 0 0 .86 21a1.81 1.81 0 0 0 1 .41 8.59 8.59 0 0 0 3.91 0A9 9 0 0 0 8 20.49a1 1 0 0 1 .73.15 1.16 1.16 0 0 1 .32 1 2.59 2.59 0 0 1-.48 1.3c-.62.85-2.93 1.83-6.16 2.44h1.22a13.39 13.39 0 0 0 3.46-.29 4.65 4.65 0 0 0 2.13-1 3.49 3.49 0 0 0 1.21-2.81s0-.1 0-.18a2.56 2.56 0 0 0-1.19-1.89 2 2 0 0 0-1.34 0 4.61 4.61 0 0 0-1.33.67 5.65 5.65 0 0 1-2.67.65c-.86 0-1.95.1-2.4-.54a1.26 1.26 0 0 1-.23-.99 1.14 1.14 0 0 1 .39-.68c.82-.7 3-.57 4.85.3.88.41 1.42.85 2.24.71a2.29 2.29 0 0 0 1.25-.61 2.67 2.67 0 0 0 .56-1.3 2.62 2.62 0 0 0 0-1.81 2.26 2.26 0 0 0-1.36-1 2.86 2.86 0 0 0-1.39-.17c-.77.11-.94.49-2 .92a5.91 5.91 0 0 1-1.35.4c-.42.07-2.15.3-3.06-.68a1 1 0 0 1-.34-.78c.06-.37.49-.57.69-.67a5.06 5.06 0 0 1 3.61.18c1.56.52 2.25.83 2.25.83a2.22 2.22 0 0 0 1.23.36 2.06 2.06 0 0 0 1.24-.71 2.61 2.61 0 0 0 .54-1 2.67 2.67 0 0 0 .06-1.75 2.57 2.57 0 0 0-1.25-1.34 1.83 1.83 0 0 0-1.28-.32c-.36.07-.47.25-.87.54a5.26 5.26 0 0 1-2.15.85 6.45 6.45 0 0 1-1.61-.12c-1.16-.15-1.52-.37-1.76-.6a1 1 0 0 1-.37-.67 1.05 1.05 0 0 1 .21-.6c.45-.6 2-.6 3.28-.16.89.29 1.7.81 3 1.17a2.22 2.22 0 0 0 .8.09 2.45 2.45 0 0 0 1.3-.59 2.77 2.77 0 0 0 .71-1 2.89 2.89 0 0 0 .2-.8v-3.4a3.31 3.31 0 0 1 .54-1 3.44 3.44 0 0 1 2.18-1.3 2.93 2.93 0 0 1 2 .29A3.46 3.46 0 0 1 16.8 4a5.93 5.93 0 0 1 .62 1.51l.12 2h1.62c.13 0 .63 0 1.28.12a3.23 3.23 0 0 1 .7.15 2.21 2.21 0 0 1 .71.32 2.43 2.43 0 0 1 .51.5 3.62 3.62 0 0 1 .41.66q-.42 7.75-.86 15.52a1.48 1.48 0 0 0 .24.56 1.6 1.6 0 0 0 .53.45 5.58 5.58 0 0 0 1 .38 11 11 0 0 1 1.09.45 3.77 3.77 0 0 1 .77.41 3.52 3.52 0 0 1 .65.62 4.64 4.64 0 0 1 .42.53 3 3 0 0 1 .14 2.07l.83-.09h.77c.28 0 .48 0 .92.09a3.56 3.56 0 0 1 .68.15.69.69 0 0 1 .38.24.41.41 0 0 1 .09.32c0 .19-.2.3-.35.39a5 5 0 0 1-1 .38A8.77 8.77 0 0 0 26.41 33L26 43.26H12.25a2.52 2.52 0 0 1-1.25-.34 2.59 2.59 0 0 1-.87-.9c-.24-3.11-.49-6.23-.74-9.34l-2-1.78a2 2 0 0 1 .36-.35c.31-.24.49-.33.76-.53a1.74 1.74 0 0 0 .49-.48.16.16 0 0 0 0-.06 1.58 1.58 0 0 0 .09-1.12 1.45 1.45 0 0 0-.74-.81Z"/><path class="cls-1" d="M11 24.75c.49-.17.92-.34 1.29-.49a2 2 0 0 0 .92-.58 1.32 1.32 0 0 0 .24-.5q-.15-7.35-.32-14.7a1.31 1.31 0 0 1 .15-.77 4 4 0 0 1 .72-.85c.07 0 .2-.09.29 0s.09.22.09.33a1.67 1.67 0 0 1-.2.62 4.69 4.69 0 0 0-.18.56q.35 7.7.71 15.41a2.25 2.25 0 0 1-.56.73 2.53 2.53 0 0 1-1.39.54 3.33 3.33 0 0 1-1.76-.3Z"/><text class="cls-2" transform="translate(39.96 34)">Copper Pro</text></g></svg>